<svg xmlns="http://www.w3.org/2000/svg" viewBox="0 0 800 600" width="100%" height="100%">
  <defs>
    <filter id="glow" x="-20%" y="-20%" width="140%" height="140%">
      <feGaussianBlur stdDeviation="8" result="blur" />
      <feMerge>
        <feMergeNode in="blur" />
        <feMergeNode in="SourceGraphic" />
      </feMerge>
    </filter>
    <filter id="soft-glow" x="-20%" y="-20%" width="140%" height="140%">
      <feGaussianBlur stdDeviation="4" result="blur" />
      <feMerge>
        <feMergeNode in="blur" />
        <feMergeNode in="SourceGraphic" />
      </feMerge>
    </filter>
  </defs>
  
    <!-- Core Horizontal Bus Pipe -->
    <rect x="100" y="270" width="600" height="60" rx="30" fill="#1e293b" stroke="#94a3b8" stroke-width="4"/>
    <line x1="150" y1="300" x2="650" y2="300" stroke="#0ea5e9" stroke-width="4" stroke-dasharray="20 10" filter="url(#glow)"/>
    
    <!-- Infrastructure Racks -->
    <g transform="translate(180, 100)">
      <rect x="0" y="0" width="80" height="120" rx="6" fill="#1e293b" stroke="#94a3b8" stroke-width="3"/>
      <rect x="10" y="10" width="60" height="20" rx="2" fill="#0ea5e9" opacity="0.5"/>
      <rect x="10" y="40" width="60" height="20" rx="2" fill="#94a3b8" opacity="0.5"/>
      <rect x="10" y="70" width="60" height="20" rx="2" fill="#94a3b8" opacity="0.5"/>
      <line x1="40" y1="120" x2="40" y2="170" stroke="#94a3b8" stroke-width="4"/>
    </g>
    
    <g transform="translate(360, 120)">
      <rect x="0" y="0" width="80" height="100" rx="6" fill="#1e293b" stroke="#0ea5e9" stroke-width="3"/>
      <circle cx="40" cy="40" r="25" fill="#1e293b" stroke="#94a3b8" stroke-width="2"/>
      <circle cx="40" cy="40" r="10" fill="#94a3b8" filter="url(#glow)"/>
      <line x1="40" y1="100" x2="40" y2="150" stroke="#0ea5e9" stroke-width="4"/>
    </g>

    <g transform="translate(540, 380)">
      <rect x="0" y="0" width="100" height="80" rx="6" fill="#1e293b" stroke="#94a3b8" stroke-width="3"/>
      <rect x="10" y="20" width="80" height="8" rx="2" fill="#94a3b8" opacity="0.8"/>
      <rect x="10" y="40" width="80" height="8" rx="2" fill="#94a3b8" opacity="0.8"/>
      <rect x="10" y="60" width="80" height="8" rx="2" fill="#94a3b8" opacity="0.8"/>
      <line x1="50" y1="0" x2="50" y2="-50" stroke="#94a3b8" stroke-width="4"/>
    </g>
  
</svg>