<svg xmlns="http://www.w3.org/2000/svg" viewBox="0 0 800 600" width="100%" height="100%">
  <defs>
    <filter id="glow" x="-20%" y="-20%" width="140%" height="140%">
      <feGaussianBlur stdDeviation="8" result="blur" />
      <feMerge>
        <feMergeNode in="blur" />
        <feMergeNode in="SourceGraphic" />
      </feMerge>
    </filter>
    <filter id="soft-glow" x="-20%" y="-20%" width="140%" height="140%">
      <feGaussianBlur stdDeviation="4" result="blur" />
      <feMerge>
        <feMergeNode in="blur" />
        <feMergeNode in="SourceGraphic" />
      </feMerge>
    </filter>
  </defs>
  
    <!-- Service Grid -->
    <rect x="290" y="220" width="190" height="130" rx="12" fill="#142a1c" stroke="#52b788" stroke-width="1" opacity="0.3"/>
    <rect x="304" y="234" width="12" height="12" rx="3" fill="#95d5b2" opacity="0.31"/><rect x="334" y="234" width="12" height="12" rx="3" fill="#95d5b2" opacity="0.37"/><rect x="364" y="234" width="12" height="12" rx="3" fill="#52b788" opacity="0.40"/><rect x="394" y="234" width="12" height="12" rx="3" fill="#52b788" opacity="0.70"/><rect x="424" y="234" width="12" height="12" rx="3" fill="#95d5b2" opacity="0.43"/><rect x="454" y="234" width="12" height="12" rx="3" fill="#95d5b2" opacity="0.47"/><rect x="304" y="264" width="12" height="12" rx="3" fill="#95d5b2" opacity="0.45"/><rect x="334" y="264" width="12" height="12" rx="3" fill="#95d5b2" opacity="0.53"/><rect x="364" y="264" width="12" height="12" rx="3" fill="#52b788" opacity="0.64"/><rect x="394" y="264" width="12" height="12" rx="3" fill="#52b788" opacity="0.52"/><rect x="424" y="264" width="12" height="12" rx="3" fill="#95d5b2" opacity="0.49"/><rect x="454" y="264" width="12" height="12" rx="3" fill="#95d5b2" opacity="0.53"/><rect x="304" y="294" width="12" height="12" rx="3" fill="#95d5b2" opacity="0.70"/><rect x="334" y="294" width="12" height="12" rx="3" fill="#95d5b2" opacity="0.31"/><rect x="364" y="294" width="12" height="12" rx="3" fill="#52b788" opacity="0.51"/><rect x="394" y="294" width="12" height="12" rx="3" fill="#52b788" opacity="0.66"/><rect x="424" y="294" width="12" height="12" rx="3" fill="#95d5b2" opacity="0.38"/><rect x="454" y="294" width="12" height="12" rx="3" fill="#95d5b2" opacity="0.65"/><rect x="304" y="324" width="12" height="12" rx="3" fill="#95d5b2" opacity="0.37"/><rect x="334" y="324" width="12" height="12" rx="3" fill="#95d5b2" opacity="0.63"/><rect x="364" y="324" width="12" height="12" rx="3" fill="#52b788" opacity="0.46"/><rect x="394" y="324" width="12" height="12" rx="3" fill="#52b788" opacity="0.43"/><rect x="424" y="324" width="12" height="12" rx="3" fill="#95d5b2" opacity="0.74"/><rect x="454" y="324" width="12" height="12" rx="3" fill="#95d5b2" opacity="0.53"/>
    <!-- Connection lines between clusters -->
    <line x1="340" y1="225" x2="400" y2="225" stroke="#52b788" stroke-width="1" opacity="0.3"/>
    <line x1="400" y1="225" x2="460" y2="225" stroke="#95d5b2" stroke-width="1" opacity="0.3"/>
  
</svg>