<svg xmlns="http://www.w3.org/2000/svg" viewBox="0 0 800 600" width="100%" height="100%">
  <defs>
    <filter id="glow" x="-20%" y="-20%" width="140%" height="140%">
      <feGaussianBlur stdDeviation="8" result="blur" />
      <feMerge>
        <feMergeNode in="blur" />
        <feMergeNode in="SourceGraphic" />
      </feMerge>
    </filter>
    <filter id="soft-glow" x="-20%" y="-20%" width="140%" height="140%">
      <feGaussianBlur stdDeviation="4" result="blur" />
      <feMerge>
        <feMergeNode in="blur" />
        <feMergeNode in="SourceGraphic" />
      </feMerge>
    </filter>
  </defs>
  
    <g transform="translate(400, 300)">
      <!-- Network Nodes -->
      <path d="M-150 -100 L0 -180 L150 -100 L200 50 L100 150 L-100 150 L-200 50 Z" fill="#1e293b" stroke="#94a3b8" stroke-width="1" opacity="0.3"/>
      
      <circle cx="-150" cy="-100" r="12" fill="#94a3b8"/>
      <circle cx="0" cy="-180" r="20" fill="#0ea5e9" filter="url(#glow)"/>
      <circle cx="150" cy="-100" r="15" fill="#94a3b8"/>
      <circle cx="200" cy="50" r="10" fill="#94a3b8"/>
      <circle cx="100" cy="150" r="25" fill="#1e293b" stroke="#0ea5e9" stroke-width="3"/>
      <circle cx="-100" cy="150" r="18" fill="#94a3b8"/>
      <circle cx="-200" cy="50" r="14" fill="#1e293b" stroke="#94a3b8" stroke-width="2"/>
      
      <!-- Central Hub -->
      <circle cx="0" cy="-20" r="40" fill="#1e293b" stroke="#94a3b8" stroke-width="4" filter="url(#glow)"/>
      <circle cx="0" cy="-20" r="15" fill="#0ea5e9"/>
      
      <!-- Inner Connections -->
      <line x1="0" y1="-20" x2="-150" y2="-100" stroke="#0ea5e9" stroke-width="2" stroke-dasharray="4 2"/>
      <line x1="0" y1="-20" x2="0" y2="-180" stroke="#0ea5e9" stroke-width="3"/>
      <line x1="0" y1="-20" x2="150" y2="-100" stroke="#94a3b8" stroke-width="2"/>
      <line x1="0" y1="-20" x2="100" y2="150" stroke="#94a3b8" stroke-width="2"/>
      <line x1="0" y1="-20" x2="-100" y2="150" stroke="#0ea5e9" stroke-width="2"/>
    </g>
  
</svg>